<?xml version="1.0" encoding="UTF-8"?>
<svg version="1.1" xmlns="http://www.w3.org/2000/svg" width="800" height="300">
<path d="M0 0 C13 0 13 0 16.98046875 3.26171875 C18.09105234 4.70594195 19.15930252 6.1835098 20.1875 7.6875 C20.76064941 8.45247803 21.33379883 9.21745605 21.92431641 10.00561523 C23.08714841 11.56313583 24.233258 13.13328924 25.36181641 14.71582031 C27.3130478 17.43649407 29.35821959 20.07249355 31.42651367 22.70458984 C33.30811916 25.11804303 35.15041981 27.56191702 37 30 C37.33 20.1 37.66 10.2 38 0 C42.95 0 47.9 0 53 0 C53 18.48 53 36.96 53 56 C40 56 40 56 36.203125 53.10546875 C35.17862368 51.83071388 34.19464009 50.52251237 33.25 49.1875 C32.71906738 48.50840576 32.18813477 47.82931152 31.64111328 47.12963867 C30.57121051 45.75730187 29.51693497 44.37262305 28.47949219 42.97558594 C26.37659578 40.16755991 24.12723765 37.50206535 21.875 34.8125 C19.51497704 31.91367935 17.24435277 28.99247036 15 26 C14.67 35.9 14.34 45.8 14 56 C9.38 56 4.76 56 0 56 C0 37.52 0 19.04 0 0 Z " fill="#FFFFFF" transform="translate(377,159)"/>
<path d="M0 0 C5.424375 -0.0825 10.84875 -0.165 16.4375 -0.25 C18.97715454 -0.30462402 18.97715454 -0.30462402 21.56811523 -0.36035156 C30.52736351 -0.47402468 38.03760754 -0.18027626 45.15625 5.81640625 C45.5996875 6.39261719 46.043125 6.96882812 46.5 7.5625 C46.9640625 8.14128906 47.428125 8.72007812 47.90625 9.31640625 C51.24817972 14.46059093 50.72454658 21.14945568 50 27 C47.73434058 32.19551868 44.61870748 35.76690477 40 39 C41.27045696 40.75027325 42.54138106 42.50020744 43.8125 44.25 C44.52019531 45.22453125 45.22789062 46.1990625 45.95703125 47.203125 C47.19725557 48.90102292 48.45987162 50.58325181 49.76171875 52.234375 C51 54 51 54 51 56 C40.13229873 57.56014853 40.13229873 57.56014853 35 56 C30.71086798 52.74965211 28.21892396 47.79534122 26 43 C26 42.34 26 41.68 26 41 C22.37 41 18.74 41 15 41 C15 45.95 15 50.9 15 56 C10.05 56 5.1 56 0 56 C0 37.52 0 19.04 0 0 Z M15 11 C15 17.27 15 23.54 15 30 C24.45420098 30.42378516 24.45420098 30.42378516 33 27 C35.74100569 23.9163686 36.01805072 22.52347098 35.875 18.375 C35.03028361 15.11680822 34.70601146 13.87339255 32 12 C26.57364835 10.19121612 20.66885438 10.94799216 15 11 Z " fill="#FFFFFF" transform="translate(298,159)"/>
<path d="M0 0 C4.62 0 9.24 0 14 0 C14.01458252 1.02359619 14.02916504 2.04719238 14.04418945 3.10180664 C14.10246505 6.92457811 14.17969421 10.74677845 14.26245117 14.5690918 C14.2955636 16.2187366 14.32363756 17.86849096 14.34643555 19.51831055 C14.38023533 21.89939768 14.43256004 24.27949306 14.48828125 26.66015625 C14.49467117 27.38960953 14.5010611 28.11906281 14.50764465 28.87062073 C14.65009542 33.90966719 15.60476939 37.53537994 18 42 C21.89643996 44.52122586 24.73931546 45.35561788 29.25 44.5 C32.18248918 43.58111558 32.9194873 43.09869298 34.9375 40.625 C36.893104 35.79350778 37.19657723 31.35625845 37.31640625 26.171875 C37.33718735 25.42286926 37.35796844 24.67386353 37.37937927 23.90216064 C37.44457088 21.51819712 37.50361783 19.13412688 37.5625 16.75 C37.60571416 15.13019746 37.64932937 13.51040557 37.69335938 11.890625 C37.80022096 7.92719168 37.90157333 3.9636514 38 0 C42.62 0 47.24 0 52 0 C52.07466663 5.24695799 52.12884421 10.49360043 52.16479492 15.7409668 C52.17979643 17.52259719 52.20020433 19.30419119 52.22631836 21.08569336 C52.26308509 23.66008535 52.27981285 26.2339853 52.29296875 28.80859375 C52.30845261 29.59334579 52.32393646 30.37809784 52.33988953 31.18663025 C52.34194383 38.07782952 51.1362004 44.40191844 46.6875 49.8125 C37.77473993 57.06707215 30.28979638 57.7767963 19.17431641 57.23095703 C13.17398311 56.59359847 8.83609597 53.7419372 4.5625 49.6875 C0.65101535 42.95974641 -0.43869149 37.32744726 -0.29296875 29.6875 C-0.28872391 28.83317383 -0.28447906 27.97884766 -0.28010559 27.09863281 C-0.26345703 24.39875318 -0.22583223 21.69964989 -0.1875 19 C-0.17243523 17.15756295 -0.15874998 15.31511407 -0.14648438 13.47265625 C-0.11359906 8.98147661 -0.06191456 4.49086944 0 0 Z " fill="#FFFFFF" transform="translate(215,159)"/>
<path d="M0 0 C5.64345062 -0.95270444 11.47653856 -1.91177791 17 0 C22.03214267 4.19258311 25.03695637 10.26590261 28 16 C29.27348212 14.27278316 30.54367057 12.54313762 31.8125 10.8125 C32.52019531 9.84957031 33.22789062 8.88664063 33.95703125 7.89453125 C36.06474334 5.12145119 36.06474334 5.12145119 37.21875 2.15625 C39 0 39 0 40.82495117 -0.38989258 C43.13301392 -0.49373865 45.38055214 -0.43551199 47.6875 -0.3125 C48.88342773 -0.27866211 48.88342773 -0.27866211 50.10351562 -0.24414062 C52.06981334 -0.18526944 54.03514491 -0.09558755 56 0 C53.06319946 4.49025952 50.07484404 8.91971017 46.89453125 13.2421875 C46.34764648 13.99314697 45.80076172 14.74410645 45.23730469 15.51782227 C44.1271357 17.03888325 43.00675878 18.55254973 41.87597656 20.05834961 C41.36131836 20.76741455 40.84666016 21.47647949 40.31640625 22.20703125 C39.84662354 22.8410083 39.37684082 23.47498535 38.89282227 24.12817383 C37.82539729 25.95554109 37.82539729 25.95554109 38.18237305 27.98413086 C39.11846909 30.29208698 40.27849172 32.04797903 41.765625 34.046875 C42.32636719 34.81 42.88710938 35.573125 43.46484375 36.359375 C44.34849609 37.54273438 44.34849609 37.54273438 45.25 38.75 C49.41608644 44.3671952 53.39535946 50.00322628 57 56 C51.35041862 56.8941307 45.5474176 57.77779641 40 56 C35.00416457 52.18323351 31.85833385 46.49442145 29 41 C29 40.34 29 39.68 29 39 C25.18325205 42.49868562 23.06126401 45.71802131 20.75 50.3125 C17.39569314 55.62348587 17.39569314 55.62348587 13.97460938 56.54638672 C8.93943312 57.05834682 4.00783533 56.61459797 -1 56 C1.25457867 51.71279599 3.74631192 47.92836816 6.7421875 44.1171875 C7.41507813 43.25996094 8.08796875 42.40273437 8.78125 41.51953125 C10.18994113 39.74027025 11.60945276 37.96952845 13.0390625 36.20703125 C13.70421875 35.35238281 14.369375 34.49773437 15.0546875 33.6171875 C15.66812012 32.85003418 16.28155273 32.08288086 16.91357422 31.29248047 C18.29172483 29.01471845 18.29172483 29.01471845 17.3515625 26.45898438 C16.11061815 24.2012547 14.8353129 22.12094604 13.3203125 20.0390625 C12.80339844 19.31976563 12.28648437 18.60046875 11.75390625 17.859375 C10.94759766 16.75335938 10.94759766 16.75335938 10.125 15.625 C6.43853519 10.54826258 3.00946925 5.51009104 0 0 Z " fill="#FFFFFF" transform="translate(588,159)"/>
<path d="M0 0 C16.83 0 33.66 0 51 0 C51 3.63 51 7.26 51 11 C45.06 11 39.12 11 33 11 C33 25.85 33 40.7 33 56 C28.05 56 23.1 56 18 56 C18 41.15 18 26.3 18 11 C12.06 11 6.12 11 0 11 C0 7.37 0 3.74 0 0 Z " fill="#FFFFFF" transform="translate(140,159)"/>
<path d="M0 0 C4.62 0 9.24 0 14 0 C14 18.48 14 36.96 14 56 C9.38 56 4.76 56 0 56 C0 37.52 0 19.04 0 0 Z " fill="#FFFFFF" transform="translate(462,159)"/>
<path d="M0 0 C5.19829183 3.19807954 8.44577159 7.58731478 10.375 13.375 C11.13542352 19.78554713 11.09248677 25.94291697 7.78515625 31.62109375 C4.49466461 35.7136997 0.34068436 38.71977188 -4.625 40.375 C-21.16492881 41.57183945 -21.16492881 41.57183945 -27.625 36.375 C-31.77424531 32.47171511 -34.28610009 28.2320051 -34.9609375 22.54296875 C-35.04663684 16.00410939 -34.83958757 10.61696625 -30.625 5.375 C-22.49436562 -2.10125737 -10.41437167 -4.81739649 0 0 Z M-26.0625 8.9375 C-29.20310018 13.83683628 -29.23489857 18.72270058 -28.625 24.375 C-26.86115206 29.71693947 -23.48087731 32.68877 -18.625 35.375 C-13.52175799 37.07608067 -9.30626566 36.94021247 -4.4375 34.6875 C0.09216583 32.21198495 2.72836374 29.31490878 4.375 24.375 C5.10627952 17.51775595 4.58083127 12.90898851 0.375 7.375 C-8.59359785 0.41976085 -18.18002999 0.65080076 -26.0625 8.9375 Z " fill="#FFFFFF" transform="translate(357.625,50.625)"/>
<path d="M0 0 C5.7234375 -0.12375 5.7234375 -0.12375 11.5625 -0.25 C12.75174072 -0.28641602 13.94098145 -0.32283203 15.16625977 -0.36035156 C21.70563999 -0.42861347 25.70680217 0.06645601 31 4 C34.64860436 7.88399819 34.49980174 12.23913864 34.35546875 17.33203125 C33.82598979 21.30603268 32.75224407 23.09485349 30 26 C27.75 26.875 27.75 26.875 26 27 C28.86402905 32.0916072 31.87289907 37.06584484 35 42 C31.7578125 42.37109375 31.7578125 42.37109375 28 42 C25.8046875 39.41015625 25.8046875 39.41015625 23.875 36.0625 C21.55222819 32.41848494 19.84268491 30.24796027 15.53515625 28.98046875 C11.5493725 28.66140405 11.5493725 28.66140405 6 29 C6 33.29 6 37.58 6 42 C4.02 42 2.04 42 0 42 C0 28.14 0 14.28 0 0 Z M6 4 C6 10.93 6 17.86 6 25 C17.07158964 25.54834792 17.07158964 25.54834792 26.65234375 20.66796875 C28.82123501 17.9835729 28.52903758 15.56337242 28.42578125 12.2265625 C27.74424281 8.66255415 25.83056293 7.10646543 23 5 C17.57364835 3.19121612 11.66885438 3.94799216 6 4 Z " fill="#FFFFFF" transform="translate(265,49)"/>
<path d="M0 0 C4.00125 -0.0825 8.0025 -0.165 12.125 -0.25 C13.37555176 -0.28641602 14.62610352 -0.32283203 15.91455078 -0.36035156 C22.25217921 -0.42365637 26.23673799 -0.36027876 31 4 C33.90228418 7.30259924 34.91559053 9.88157448 35.25 14.3125 C34.88898229 19.6375112 33.41468242 22.69141877 29.5 26.3125 C26.16945525 28.5606177 23.69574168 29.12550171 19.76953125 29.09765625 C18.96708984 29.09443359 18.16464844 29.09121094 17.33789062 29.08789062 C16.08782227 29.07532227 16.08782227 29.07532227 14.8125 29.0625 C13.96751953 29.05798828 13.12253906 29.05347656 12.25195312 29.04882812 C10.16793845 29.03705403 8.08396023 29.0191189 6 29 C6 33.29 6 37.58 6 42 C4.02 42 2.04 42 0 42 C0 28.14 0 14.28 0 0 Z M6 4 C6 10.93 6 17.86 6 25 C16.86621774 25.49140929 16.86621774 25.49140929 26.875 21.875 C28.73253616 18.7791064 29.10394664 15.54111558 29 12 C27.67893327 8.50305865 26.52469772 7.32052019 23.33984375 5.375 C17.63366997 3.02579161 12.11141525 3.82703542 6 4 Z " fill="#FFFFFF" transform="translate(204,49)"/>
<path d="M0 0 C9.9 0 19.8 0 30 0 C30 1.32 30 2.64 30 4 C22.08 4 14.16 4 6 4 C6 8.95 6 13.9 6 19 C13.26 19 20.52 19 28 19 C28 20.32 28 21.64 28 23 C20.74 23 13.48 23 6 23 C6 27.95 6 32.9 6 38 C14.25 38 22.5 38 31 38 C31 39.32 31 40.64 31 42 C20.77 42 10.54 42 0 42 C0 28.14 0 14.28 0 0 Z " fill="#FFFFFF" transform="translate(442,49)"/>
<path d="M0 0 C2.171875 1.10546875 2.171875 1.10546875 5.234375 3.10546875 C5.234375 4.42546875 5.234375 5.74546875 5.234375 7.10546875 C1.74231719 8.33614992 1.74231719 8.33614992 -0.5546875 7.29296875 C-1.16054688 6.90109375 -1.76640625 6.50921875 -2.390625 6.10546875 C-7.30731858 3.44953521 -11.43250951 3.84357441 -16.765625 5.10546875 C-20.86498413 6.7095658 -22.99812602 9.08290949 -25.03515625 13.015625 C-26.66594107 17.68123931 -26.66594107 22.52969819 -25.03515625 27.1953125 C-22.99812602 31.12802801 -20.86498413 33.5013717 -16.765625 35.10546875 C-11.43250951 36.36736309 -7.30731858 36.76140229 -2.390625 34.10546875 C-1.78476562 33.71359375 -1.17890625 33.32171875 -0.5546875 32.91796875 C1.74515425 31.87349913 2.90226987 32.28358148 5.234375 33.10546875 C5.234375 34.42546875 5.234375 35.74546875 5.234375 37.10546875 C-2.12207157 41.90967875 -9.14017952 42.01241592 -17.765625 41.10546875 C-23.87748741 39.59869219 -27.08919182 36.04394745 -30.63671875 31.0078125 C-33.72273226 25.80750599 -33.27796286 19.94909048 -32.765625 14.10546875 C-31.01893573 7.39684691 -26.58830602 3.56081744 -20.765625 0.10546875 C-14.5936144 -1.95186812 -6.22455442 -2.01330927 0 0 Z " fill="#FFFFFF" transform="translate(528.765625,49.89453125)"/>
<path d="M0 0 C6.93 0 13.86 0 21 0 C21.06899477 4.89351776 21.12868855 9.78533788 21.16479492 14.67895508 C21.17985114 16.34242481 21.20030063 18.00585505 21.22631836 19.66918945 C21.26284207 22.06471522 21.27975782 24.45971467 21.29296875 26.85546875 C21.30845261 27.5952446 21.32393646 28.33502045 21.33988953 29.09721375 C21.34134428 33.59353735 20.75850393 36.41740674 18 40 C14.82257812 42.26177773 11.89718053 42.29799301 8.0625 42.3125 C7.04285156 42.32925781 6.02320313 42.34601563 4.97265625 42.36328125 C1.5910854 41.95002752 -0.28234088 41.02358071 -3 39 C-3.8125 36.8125 -3.8125 36.8125 -4 35 C-2.68 34.34 -1.36 33.68 0 33 C0.86625 33.680625 1.7325 34.36125 2.625 35.0625 C5.82198904 37.29480534 5.82198904 37.29480534 9.25 36.875 C12.10911294 36.197169 12.10911294 36.197169 14 34 C14.37322427 30.89243985 14.37322427 30.89243985 14.4140625 27.2421875 C14.43342865 26.57913605 14.4527948 25.91608459 14.4727478 25.23294067 C14.53255954 23.11375823 14.57893388 20.9945215 14.625 18.875 C14.66317845 17.43877831 14.70223011 16.00257955 14.7421875 14.56640625 C14.83990819 11.04438971 14.91945876 7.52261928 15 4 C10.05 4 5.1 4 0 4 C0 2.68 0 1.36 0 0 Z " fill="#FFFFFF" transform="translate(391,49)"/>
<path d="M0 0 C11.55 0 23.1 0 35 0 C35 1.32 35 2.64 35 4 C30.38 4 25.76 4 21 4 C21 16.54 21 29.08 21 42 C19.02 42 17.04 42 15 42 C15 29.46 15 16.92 15 4 C10.05 4 5.1 4 0 4 C0 2.68 0 1.36 0 0 Z " fill="#FFFFFF" transform="translate(554,49)"/>
<path d="M0 0 C1.09054687 0.02320313 2.18109375 0.04640625 3.3046875 0.0703125 C4.40039062 0.08835938 5.49609375 0.10640625 6.625 0.125 C7.46804688 0.14820313 8.31109375 0.17140625 9.1796875 0.1953125 C9.23366085 2.6331088 9.27334366 5.06970935 9.3046875 7.5078125 C9.32982422 8.54325195 9.32982422 8.54325195 9.35546875 9.59960938 C9.39186544 13.36666646 9.32347614 14.97962954 7.1796875 18.1953125 C4.8671875 18.5234375 4.8671875 18.5234375 2.1796875 18.4453125 C0.849375 18.42210937 0.849375 18.42210937 -0.5078125 18.3984375 C-2.8203125 18.1953125 -2.8203125 18.1953125 -4.8203125 17.1953125 C-4.8203125 16.5353125 -4.8203125 15.8753125 -4.8203125 15.1953125 C-1.5203125 15.1953125 1.7796875 15.1953125 5.1796875 15.1953125 C5.5096875 14.5353125 5.8396875 13.8753125 6.1796875 13.1953125 C5.56480469 13.24171875 4.94992187 13.288125 4.31640625 13.3359375 C-2.23139087 13.62834311 -2.23139087 13.62834311 -4.9453125 11.6328125 C-6.18589154 8.17691375 -5.66964217 5.72329727 -4.8203125 2.1953125 C-2.8203125 0.1953125 -2.8203125 0.1953125 0 0 Z M-0.8203125 2.1953125 C-3.13574457 4.96519326 -3.13574457 4.96519326 -2.5078125 7.8203125 C-2.0461611 10.13033215 -2.0461611 10.13033215 -0.8203125 11.1953125 C1.63778748 11.4453898 1.63778748 11.4453898 4.1796875 11.1953125 C6.4288783 9.36828023 6.4288783 9.36828023 6.4296875 6.6953125 C6.4288783 4.02234477 6.4288783 4.02234477 4.1796875 2.1953125 C1.6796875 1.77864583 1.6796875 1.77864583 -0.8203125 2.1953125 Z " fill="#FFFFFF" transform="translate(336.8203125,231.8046875)"/>
<path d="M0 0 C0.99 0 1.98 0 3 0 C3.33 1.65 3.66 3.3 4 5 C5.8871875 4.87625 5.8871875 4.87625 7.8125 4.75 C11.69727609 4.7706637 11.69727609 4.7706637 14.0625 6.5625 C15.39274773 10.0211441 14.85607025 12.4440159 14 16 C12 18 12 18 9.1796875 18.1953125 C6.11979167 18.13020833 3.05989583 18.06510417 0 18 C0 12.06 0 6.12 0 0 Z M3 9 C2.66666667 11.5 2.66666667 11.5 3 14 C4.82915641 16.23845015 4.82915641 16.23845015 7.5 16.3125 C8.325 16.209375 9.15 16.10625 10 16 C12.31543207 13.23011924 12.31543207 13.23011924 11.6875 10.375 C11.2258486 8.06498035 11.2258486 8.06498035 10 7 C6.038832 6.60909667 6.038832 6.60909667 3 9 Z " fill="#FFFFFF" transform="translate(384,227)"/>
<path d="M0 0 C2 1.75 2 1.75 3 4 C3 5.32 3 6.64 3 8 C-0.3 8.33 -3.6 8.66 -7 9 C-6.01732141 10.20561184 -6.01732141 10.20561184 -4.15234375 10.09765625 C-2.1015625 10.06510417 -0.05078125 10.03255208 2 10 C1.67 10.99 1.34 11.98 1 13 C-0.43655854 13.08131463 -1.8744483 13.13933559 -3.3125 13.1875 C-4.51326172 13.23970703 -4.51326172 13.23970703 -5.73828125 13.29296875 C-8 13 -8 13 -9.76953125 11.70703125 C-11.81336266 8.87162069 -11.36052525 6.36490235 -11 3 C-8.85870611 -1.14875691 -4.11898914 -0.78089169 0 0 Z M-6 2 C-6.66 3.32 -7.32 4.64 -8 6 C-5.36 6 -2.72 6 0 6 C-0.66 4.68 -1.32 3.36 -2 2 C-3.32 2 -4.64 2 -6 2 Z " fill="#FFFFFF" transform="translate(210,232)"/>
<path d="M0 0 C0.99 0 1.98 0 3 0 C3 1.65 3 3.3 3 5 C4.918125 4.938125 4.918125 4.938125 6.875 4.875 C9.0546875 4.8046875 9.0546875 4.8046875 11 5 C13 7 13 7 13.1953125 9.6015625 C13.17210937 10.59929687 13.14890625 11.59703125 13.125 12.625 C13.10695313 13.62789062 13.08890625 14.63078125 13.0703125 15.6640625 C13.03550781 16.82035156 13.03550781 16.82035156 13 18 C12.01 18 11.02 18 10 18 C9.67 14.7 9.34 11.4 9 8 C7.35 8 5.7 8 4 8 C3.67 11.3 3.34 14.6 3 18 C2.01 18 1.02 18 0 18 C0 12.06 0 6.12 0 0 Z " fill="#FFFFFF" transform="translate(526,227)"/>
<path d="M0 0 C2.59341352 0.07530783 3.80569388 0.16002137 6.0625 1.5 C7.0625 3.3125 7.0625 3.3125 7.0625 8.3125 C3.7625 8.6425 0.4625 8.9725 -2.9375 9.3125 C-1.95482141 10.51811184 -1.95482141 10.51811184 -0.08984375 10.41015625 C1.9609375 10.37760417 4.01171875 10.34505208 6.0625 10.3125 C5.7325 11.3025 5.4025 12.2925 5.0625 13.3125 C-3.09971766 13.92851643 -3.09971766 13.92851643 -6.0625 11.75 C-7.30307904 8.29410125 -6.78682967 5.84048477 -5.9375 2.3125 C-3.9375 0.3125 -3.9375 0.3125 0 0 Z M-1.9375 2.3125 C-2.5975 3.6325 -3.2575 4.9525 -3.9375 6.3125 C-1.2975 6.3125 1.3425 6.3125 4.0625 6.3125 C3.7325 4.9925 3.4025 3.6725 3.0625 2.3125 C1.4125 2.3125 -0.2375 2.3125 -1.9375 2.3125 Z " fill="#FFFFFF" transform="translate(561.9375,231.6875)"/>
<path d="M0 0 C0.66 0.33 1.32 0.66 2 1 C2 1.99 2 2.98 2 4 C1.01 3.67 0.02 3.34 -1 3 C-4.5 2.5 -4.5 2.5 -8 3 C-10.24300635 5.07163629 -10.24300635 5.07163629 -11 8 C-10.33719617 10.43028072 -9.7989028 12.2010972 -8 14 C-4.33655389 14.13568319 -1.49384279 14.16461426 2 13 C2 13.99 2 14.98 2 16 C-1.70864306 17.85432153 -5.95167404 17.44400994 -10 17 C-12.625 15.5625 -12.625 15.5625 -14 13 C-14.73682337 8.72799219 -14.69251226 5.29059104 -12.625 1.4375 C-8.58024087 -0.77748714 -4.51741153 -0.48007335 0 0 Z " fill="#FFFFFF" transform="translate(91,228)"/>
<path d="M0 0 C1.45742463 -0.08096803 2.91612807 -0.13917774 4.375 -0.1875 C5.18710937 -0.22230469 5.99921875 -0.25710937 6.8359375 -0.29296875 C7.55007813 -0.19628906 8.26421875 -0.09960938 9 0 C11.20914 3.31371 11.22481553 4.3446021 11.125 8.1875 C11.10695313 9.08855469 11.08890625 9.98960937 11.0703125 10.91796875 C11.03550781 11.94857422 11.03550781 11.94857422 11 13 C9.18757948 13.02687279 7.37504767 13.04633715 5.5625 13.0625 C4.55316406 13.07410156 3.54382813 13.08570313 2.50390625 13.09765625 C0 13 0 13 -1 12 C-1.125 9.5 -1.125 9.5 -1 7 C0 6 0 6 1.84765625 5.90234375 C3.8984375 5.93489583 5.94921875 5.96744792 8 6 C7.67 5.01 7.34 4.02 7 3 C4.36 3 1.72 3 -1 3 C-0.67 2.01 -0.34 1.02 0 0 Z M2 8 C2 8.99 2 9.98 2 11 C3.65 11 5.3 11 7 11 C7.33 10.01 7.66 9.02 8 8 C6.02 8 4.04 8 2 8 Z " fill="#FFFFFF" transform="translate(439,232)"/>
<path d="M0 0 C3 2 3 2 3.8125 4.875 C4.00583978 8.09732959 3.83094313 9.39813344 2 12 C-1.18985607 13.59492803 -4.52932887 13.37616681 -8 13 C-10 11.9375 -10 11.9375 -11 10 C-11.36248449 6.61681143 -11.58433618 4.13215135 -10 1.0625 C-6.83245911 -0.6202561 -3.5086342 -0.54468716 0 0 Z M-8 4 C-8.33333333 6.5 -8.33333333 6.5 -8 9 C-6.17084359 11.23845015 -6.17084359 11.23845015 -3.5 11.3125 C-2.675 11.209375 -1.85 11.10625 -1 11 C1.31543207 8.23011924 1.31543207 8.23011924 0.6875 5.375 C0.2258486 3.06498035 0.2258486 3.06498035 -1 2 C-4.961168 1.60909667 -4.961168 1.60909667 -8 4 Z " fill="#FFFFFF" transform="translate(119,232)"/>
<path d="M0 0 C3.96 0 7.92 0 12 0 C13.87184371 3.74368742 14.23999767 4.8400791 14.125 8.75 C14.10695313 9.54921875 14.08890625 10.3484375 14.0703125 11.171875 C14.03550781 12.07679688 14.03550781 12.07679688 14 13 C13.01 13 12.02 13 11 13 C10.67 9.37 10.34 5.74 10 2 C8.02 2.66 6.04 3.32 4 4 C3.67 6.97 3.34 9.94 3 13 C2.01 13 1.02 13 0 13 C0 8.71 0 4.42 0 0 Z " fill="#FFFFFF" transform="translate(467,232)"/>
<path d="M0 0 C8.3984375 -0.1953125 8.3984375 -0.1953125 11 0 C13 2 13 2 13.1953125 4.6015625 C13.17210937 5.59929687 13.14890625 6.59703125 13.125 7.625 C13.10695313 8.62789062 13.08890625 9.63078125 13.0703125 10.6640625 C13.03550781 11.82035156 13.03550781 11.82035156 13 13 C12.01 13 11.02 13 10 13 C9.67 9.7 9.34 6.4 9 3 C7.35 3 5.7 3 4 3 C3.67 6.3 3.34 9.6 3 13 C2.01 13 1.02 13 0 13 C0 8.71 0 4.42 0 0 Z " fill="#FFFFFF" transform="translate(302,232)"/>
<path d="M0 0 C8.3984375 -0.1953125 8.3984375 -0.1953125 11 0 C13 2 13 2 13.1953125 4.6015625 C13.17210937 5.59929687 13.14890625 6.59703125 13.125 7.625 C13.10695312 8.62789062 13.08890625 9.63078125 13.0703125 10.6640625 C13.03550781 11.82035156 13.03550781 11.82035156 13 13 C12.01 13 11.02 13 10 13 C9.67 9.7 9.34 6.4 9 3 C7.35 3 5.7 3 4 3 C3.67 6.3 3.34 9.6 3 13 C2.01 13 1.02 13 0 13 C0 8.71 0 4.42 0 0 Z " fill="#FFFFFF" transform="translate(139,232)"/>
<path d="M0 0 C1.23556641 0.01740234 1.23556641 0.01740234 2.49609375 0.03515625 C3.32238281 0.04417969 4.14867187 0.05320313 5 0.0625 C5.63808594 0.07410156 6.27617188 0.08570313 6.93359375 0.09765625 C6.93359375 1.08765625 6.93359375 2.07765625 6.93359375 3.09765625 C4.62359375 3.09765625 2.31359375 3.09765625 -0.06640625 3.09765625 C1.80659418 5.26443881 1.80659418 5.26443881 4.49609375 5.97265625 C6.93359375 7.09765625 6.93359375 7.09765625 7.87109375 9.09765625 C7.89171875 9.75765625 7.91234375 10.41765625 7.93359375 11.09765625 C5.93359375 13.09765625 5.93359375 13.09765625 3.76953125 13.29296875 C2.55136719 13.25816406 2.55136719 13.25816406 1.30859375 13.22265625 C0.49132812 13.20460937 -0.3259375 13.1865625 -1.16796875 13.16796875 C-1.79445313 13.14476562 -2.4209375 13.1215625 -3.06640625 13.09765625 C-3.39640625 12.10765625 -3.72640625 11.11765625 -4.06640625 10.09765625 C-1.42640625 10.09765625 1.21359375 10.09765625 3.93359375 10.09765625 C1.30712187 8.34667499 -1.35416007 6.71034317 -4.06640625 5.09765625 C-2.94676868 0.13926128 -2.94676868 0.13926128 0 0 Z " fill="#FFFFFF" transform="translate(588.06640625,231.90234375)"/>
<path d="M0 0 C8.3984375 -0.29296875 8.3984375 -0.29296875 11 0 C13.20914 3.31371 13.22481553 4.3446021 13.125 8.1875 C13.10695312 9.08855469 13.08890625 9.98960937 13.0703125 10.91796875 C13.03550781 11.94857422 13.03550781 11.94857422 13 13 C12.01 13 11.02 13 10 13 C9.67 9.7 9.34 6.4 9 3 C7.35 3 5.7 3 4 3 C3.34 6.3 2.68 9.6 2 13 C1.34 13 0.68 13 0 13 C0 8.71 0 4.42 0 0 Z " fill="#FFFFFF" transform="translate(170,232)"/>
<path d="M0 0 C0.66 0.33 1.32 0.66 2 1 C2 1.66 2 2.32 2 3 C0.700625 2.979375 -0.59875 2.95875 -1.9375 2.9375 C-3.29165633 2.91600546 -4.64756083 2.92851801 -6 3 C-7.28322547 4.0595877 -7.28322547 4.0595877 -7.125 6.5 C-7.28322547 8.9404123 -7.28322547 8.9404123 -6 10 C-3.32941149 10.14115161 -0.67567762 10.04247107 2 10 C2 10.66 2 11.32 2 12 C-1.18985607 13.59492803 -4.52932887 13.37616681 -8 13 C-10 11.9375 -10 11.9375 -11 10 C-11.36248449 6.61681143 -11.58433618 4.13215135 -10 1.0625 C-6.68476331 -0.69871949 -3.71856563 -0.23609941 0 0 Z " fill="#FFFFFF" transform="translate(239,232)"/>
<path d="M0 0 C0.66 0.99 1.32 1.98 2 3 C0.700625 2.979375 -0.59875 2.95875 -1.9375 2.9375 C-3.29165633 2.91600546 -4.64756083 2.92851801 -6 3 C-7.28322547 4.0595877 -7.28322547 4.0595877 -7.125 6.5 C-7.28322547 8.9404123 -7.28322547 8.9404123 -6 10 C-3.32941149 10.14115161 -0.67567762 10.04247107 2 10 C2 10.66 2 11.32 2 12 C-1.18985607 13.59492803 -4.52932887 13.37616681 -8 13 C-10 11.9375 -10 11.9375 -11 10 C-11.36248449 6.61681143 -11.58433618 4.13215135 -10 1.0625 C-6.60529375 -0.74093769 -3.80755575 -0.36262436 0 0 Z " fill="#FFFFFF" transform="translate(508,232)"/>
<path d="M0 0 C0.66 0 1.32 0 2 0 C2 0.99 2 1.98 2 3 C3.65 3 5.3 3 7 3 C7 3.66 7 4.32 7 5 C5.35 5 3.7 5 2 5 C2.33 7.64 2.66 10.28 3 13 C4.32 13.33 5.64 13.66 7 14 C7 14.66 7 15.32 7 16 C5.00045254 16.04254356 2.99958364 16.04080783 1 16 C0 15 0 15 -0.09765625 12.71484375 C-0.08605469 11.79832031 -0.07445312 10.88179687 -0.0625 9.9375 C-0.05347656 9.01839844 -0.04445313 8.09929687 -0.03515625 7.15234375 C-0.02355469 6.44207031 -0.01195312 5.73179687 0 5 C-0.99 5 -1.98 5 -3 5 C-3 4.34 -3 3.68 -3 3 C-2.01 3 -1.02 3 0 3 C0 2.01 0 1.02 0 0 Z " fill="#FFFFFF" transform="translate(258,229)"/>
<path d="M0 0 C2.64 0 5.28 0 8 0 C8 0.66 8 1.32 8 2 C7.35546875 2.23460937 6.7109375 2.46921875 6.046875 2.7109375 C3.7922092 3.81161073 3.7922092 3.81161073 3.390625 6.1640625 C3.34421875 6.97617188 3.2978125 7.78828125 3.25 8.625 C3.19328125 9.44226563 3.1365625 10.25953125 3.078125 11.1015625 C3.05234375 11.72804687 3.0265625 12.35453125 3 13 C2.01 13 1.02 13 0 13 C0 8.71 0 4.42 0 0 Z " fill="#FFFFFF" transform="translate(415,232)"/>
<path d="M0 0 C0.99 0 1.98 0 3 0 C3 4.29 3 8.58 3 13 C2.01 13 1.02 13 0 13 C0 8.71 0 4.42 0 0 Z " fill="#FFFFFF" transform="translate(281,232)"/>
<path d="M0 0 C1.32 0 2.64 0 4 0 C4 0.66 4 1.32 4 2 C2.68 2 1.36 2 0 2 C0 1.34 0 0.68 0 0 Z " fill="#FFFFFF" transform="translate(670,243)"/>
<path d="M0 0 C1.32 0 2.64 0 4 0 C4 0.66 4 1.32 4 2 C2.68 2 1.36 2 0 2 C0 1.34 0 0.68 0 0 Z " fill="#FFFFFF" transform="translate(281,227)"/>
<path d="M0 0 C0.99 0 1.98 0 3 0 C3 0.66 3 1.32 3 2 C2.01 2 1.02 2 0 2 C0 1.34 0 0.68 0 0 Z " fill="#FFFFFF" transform="translate(710,243)"/>
<path d="M0 0 C0.99 0 1.98 0 3 0 C3 0.66 3 1.32 3 2 C2.01 2 1.02 2 0 2 C0 1.34 0 0.68 0 0 Z " fill="#FFFFFF" transform="translate(631,243)"/>
</svg>
